<svg xmlns="http://www.w3.org/2000/svg" viewBox="0 0 48 48" width="48" height="48">
  <defs>
    <linearGradient id="bg-mirror" x1="0%" y1="0%" x2="100%" y2="100%">
      <stop offset="0%" stop-color="#0f172a"/>
      <stop offset="100%" stop-color="#1e293b"/>
    </linearGradient>
  </defs>
  <rect width="48" height="48" rx="12" fill="url(#bg-mirror)" stroke="#64748b" stroke-width="1.2" stroke-opacity="0.4"/>

  <!-- Central Mirror Symmetry Line -->
  <path d="M24 7 L24 41" stroke="#38bdf8" stroke-width="1.5" stroke-dasharray="3 2" opacity="0.8"/>
  <polygon points="24,6 25.5,8 22.5,8" fill="#38bdf8"/>
  <polygon points="24,42 25.5,40 22.5,40" fill="#38bdf8"/>

  <!-- Left Letter 'b' -->
  <path d="M11 13 L11 34" stroke="#f8fafc" stroke-width="2.5" stroke-linecap="round"/>
  <path d="M11 23 C13 20.5 19 20.5 19 26 C19 31.5 13 31.5 11 29" fill="none" stroke="#f8fafc" stroke-width="2.5" stroke-linecap="round"/>

  <!-- Right Mirrored Letter 'd' -->
  <path d="M37 13 L37 34" stroke="#a78bfa" stroke-width="2.5" stroke-linecap="round"/>
  <path d="M37 23 C35 20.5 29 20.5 29 26 C29 31.5 35 31.5 37 29" fill="none" stroke="#a78bfa" stroke-width="2.5" stroke-linecap="round"/>

  <!-- Reflection Sheen highlights -->
  <path d="M8 8 L18 8 L13 40 L8 40 Z" fill="#ffffff" opacity="0.03"/>
  <path d="M26 8 L36 8 L31 40 L26 40 Z" fill="#ffffff" opacity="0.03"/>
</svg>
