<svg xmlns="http://www.w3.org/2000/svg" viewBox="0 0 48 48" width="48" height="48">
  <defs>
    <linearGradient id="bg-table" x1="0%" y1="0%" x2="100%" y2="100%">
      <stop offset="0%" stop-color="#0f172a"/>
      <stop offset="100%" stop-color="#0f766e"/>
    </linearGradient>
  </defs>
  <rect width="48" height="48" rx="12" fill="url(#bg-table)" stroke="#14b8a6" stroke-width="1.2" stroke-opacity="0.4"/>

  <!-- Spreadsheet Table (Top-Left) -->
  <rect x="7" y="9" width="18" height="15" rx="2.5" fill="#0f2937" stroke="#38bdf8" stroke-width="1.5"/>
  <rect x="7" y="9" width="18" height="5" rx="1.5" fill="#0284c7" opacity="0.4"/>
  <path d="M7 14 L25 14 M16 9 L16 24" stroke="#38bdf8" stroke-width="1"/>
  <rect x="9.5" y="17" width="4" height="2" rx="1" fill="#94a3b8"/>
  <rect x="18.5" y="17" width="4" height="2" rx="1" fill="#94a3b8"/>

  <!-- Transformation Swoop Arrow -->
  <path d="M23 23 C26 21, 28 23, 29 26" fill="none" stroke="#fbbf24" stroke-width="2" stroke-linecap="round"/>
  <path d="M26.5 26.5 L29.5 27 L29.5 24" fill="none" stroke="#fbbf24" stroke-width="2" stroke-linecap="round" stroke-linejoin="round"/>

  <!-- Code / CSV Container (Bottom-Right) -->
  <rect x="22" y="24" width="19" height="15" rx="2.5" fill="#1e1b4b" stroke="#c084fc" stroke-width="1.5"/>
  
  <!-- Left Brace { -->
  <path d="M26 27 C25 27 24.5 28 24.5 29 C24.5 30 24 30.5 23.5 30.5 C24 30.5 24.5 31 24.5 32 C24.5 33 25 34 26 34" fill="none" stroke="#34d399" stroke-width="1.4" stroke-linecap="round"/>
  
  <!-- Code Lines -->
  <rect x="27.5" y="28" width="8" height="1.6" rx="0.8" fill="#f8fafc"/>
  <rect x="27.5" y="31" width="5.5" height="1.6" rx="0.8" fill="#fbbf24"/>
  <rect x="27.5" y="34" width="7" height="1.6" rx="0.8" fill="#38bdf8"/>
  
  <!-- Right Brace } -->
  <path d="M37 27 C38 27 38.5 28 38.5 29 C38.5 30 39 30.5 39.5 30.5 C39 30.5 38.5 31 38.5 32 C38.5 33 38 34 37 34" fill="none" stroke="#34d399" stroke-width="1.4" stroke-linecap="round"/>
</svg>
